<svg viewBox="0 0 16 9" fill="none" xmlns="http://www.w3.org/2000/svg">
<path d="M4.625 2.25C4.76562 2.25 4.90625 2.34375 4.95312 2.50781L6.45312 6.25781C6.54688 6.44531 6.45312 6.65625 6.24219 6.72656C6.05469 6.82031 5.84375 6.72656 5.77344 6.51562L5.5625 6H3.6875H3.66406L3.45312 6.51562C3.38281 6.72656 3.17188 6.82031 2.98438 6.72656C2.77344 6.65625 2.67969 6.44531 2.77344 6.25781L4.27344 2.50781C4.32031 2.34375 4.46094 2.25 4.625 2.25ZM3.96875 5.25H5.25781L4.625 3.65625L3.96875 5.25ZM7.25 2.625C7.25 2.4375 7.41406 2.25 7.625 2.25H8.9375C9.64062 2.25 10.25 2.85938 10.25 3.5625C10.25 3.86719 10.1562 4.125 9.99219 4.33594C10.3672 4.57031 10.625 4.96875 10.625 5.4375C10.625 6.16406 10.0156 6.75 9.3125 6.75H7.625C7.41406 6.75 7.25 6.58594 7.25 6.375V2.625ZM8 4.875V6H9.3125C9.61719 6 9.875 5.76562 9.875 5.4375C9.875 5.13281 9.61719 4.875 9.3125 4.875H8ZM8.9375 4.125C9.24219 4.125 9.5 3.89062 9.5 3.5625C9.5 3.25781 9.24219 3 8.9375 3H8V4.125H8.9375ZM0.5 1.5C0.5 0.679688 1.15625 0 2 0H14C14.8203 0 15.5 0.679688 15.5 1.5V7.5C15.5 8.34375 14.8203 9 14 9H2C1.15625 9 0.5 8.34375 0.5 7.5V1.5ZM1.25 1.5V7.5C1.25 7.92188 1.57812 8.25 2 8.25H14C14.3984 8.25 14.75 7.92188 14.75 7.5V1.5C14.75 1.10156 14.3984 0.75 14 0.75H2C1.57812 0.75 1.25 1.10156 1.25 1.5Z" fill="#8996A0"/>
</svg>
