<svg width="23" height="23" viewBox="0 0 14 14" fill="none" xmlns="http://www.w3.org/2000/svg">
<path d="M1.23353 6.11961C0.922156 6.66496 0.922156 7.33504 1.23353 7.88039L3.36488 11.6196C3.67625 12.165 4.24832 12.5 4.87107 12.5H9.13376C9.7541 12.5 10.3286 12.165 10.6399 11.6196L12.7665 7.88039C13.0778 7.33504 13.0778 6.66496 12.7665 6.11961L10.6351 2.38039C10.3237 1.83504 9.75169 1.5 9.12894 1.5H4.86624C4.2459 1.5 3.67143 1.83504 3.36005 2.38039L1.23353 6.11961Z" fill="currentColor"/>
<g clip-path="url(#clip0_751_22545)">
<path d="M6.20714 4.67285L6.14286 4.8125H5.28571C5.12768 4.8125 5 4.95215 5 5.125C5 5.29785 5.12768 5.4375 5.28571 5.4375H8.71429C8.87232 5.4375 9 5.29785 9 5.125C9 4.95215 8.87232 4.8125 8.71429 4.8125H7.85714L7.79286 4.67285C7.74464 4.56641 7.64554 4.5 7.5375 4.5H6.4625C6.35446 4.5 6.25536 4.56641 6.20714 4.67285ZM8.71429 5.75H5.28571L5.475 9.06055C5.48929 9.30762 5.67679 9.5 5.90268 9.5H8.09732C8.32321 9.5 8.51071 9.30762 8.525 9.06055L8.71429 5.75Z" fill="white"/>
</g>
<defs>
<clipPath id="clip0_751_22545">
<rect width="4" height="5" fill="white" transform="translate(5 4.5)"/>
</clipPath>
</defs>
</svg>
