<svg width="23" height="23" viewBox="0 0 14 14" fill="none" xmlns="http://www.w3.org/2000/svg">
<path d="M1.23353 6.11961C0.922156 6.66496 0.922156 7.33504 1.23353 7.88039L3.36488 11.6196C3.67625 12.165 4.24832 12.5 4.87107 12.5H9.13376C9.7541 12.5 10.3286 12.165 10.6399 11.6196L12.7665 7.88039C13.0778 7.33504 13.0778 6.66496 12.7665 6.11961L10.6351 2.38039C10.3237 1.83504 9.75169 1.5 9.12894 1.5H4.86624C4.2459 1.5 3.67143 1.83504 3.36005 2.38039L1.23353 6.11961Z" fill="currentColor"/>
<g clip-path="url(#clip0_715_28126)">
<path d="M8.50687 6.75537L8.61722 6.64502L8.28617 6.31396L7.67972 5.70752L7.34867 5.37646L7.23832 5.48682L7.01761 5.70752L5.0723 7.65283C4.97074 7.75439 4.89652 7.88037 4.8555 8.01807L4.5098 9.19385C4.48539 9.27588 4.50785 9.36475 4.56937 9.42529C4.6309 9.48584 4.71879 9.5083 4.80082 9.48486L5.97562 9.13916C6.11332 9.09814 6.23929 9.02393 6.34086 8.92236L8.28617 6.97705L8.50687 6.75537ZM6.06254 8.3999L5.97367 8.62158C5.93461 8.65186 5.89066 8.67432 5.84379 8.68896L5.08011 8.91357L5.30472 8.15088C5.3184 8.10303 5.34183 8.05908 5.37211 8.021L5.59379 7.93213V8.24463C5.59379 8.33057 5.6641 8.40088 5.75004 8.40088H6.06254V8.3999ZM8.04203 4.68213L7.9014 4.82373L7.6807 5.04443L7.56937 5.15479L7.90043 5.48584L8.50687 6.09229L8.83793 6.42334L8.94828 6.31299L9.16898 6.09229L9.31058 5.95068C9.55472 5.70654 9.55472 5.31104 9.31058 5.06689L8.92679 4.68213C8.68265 4.43799 8.28715 4.43799 8.043 4.68213H8.04203ZM7.57914 6.32275L6.17289 7.729C6.11234 7.78955 6.01273 7.78955 5.95218 7.729C5.89164 7.66846 5.89164 7.56885 5.95218 7.5083L7.35843 6.10205C7.41898 6.0415 7.51859 6.0415 7.57914 6.10205C7.63968 6.1626 7.63968 6.26221 7.57914 6.32275Z" fill="white"/>
</g>
<defs>
<clipPath id="clip0_715_28126">
<rect width="5" height="5" fill="white" transform="translate(4.5 4.5)"/>
</clipPath>
</defs>
</svg>
