<svg width="13" height="13" viewBox="0 0 13 13" fill="none" xmlns="http://www.w3.org/2000/svg">
<path d="M8.91699 6.5C8.91699 7.03906 8.87012 7.53125 8.82324 8H4.4873C4.44043 7.53125 4.39355 7.03906 4.39355 6.5C4.39355 5.98438 4.44043 5.49219 4.4873 5H8.82324C8.87012 5.49219 8.91699 5.98438 8.91699 6.5ZM12.4561 5C12.5967 5.49219 12.667 5.98438 12.667 6.5C12.667 7.03906 12.5967 7.53125 12.4561 8H9.57324C9.62012 7.53125 9.66699 7.01562 9.66699 6.5C9.66699 5.98438 9.62012 5.49219 9.57324 5H12.4561ZM12.2217 4.25H9.47949C9.24512 2.77344 8.77637 1.50781 8.19043 0.710938C10.0186 1.20312 11.5186 2.51562 12.2217 4.25ZM8.72949 4.25H4.58105C4.72168 3.40625 4.95605 2.65625 5.21387 2.04688C5.47168 1.48438 5.72949 1.08594 6.01074 0.828125C6.26855 0.59375 6.47949 0.5 6.66699 0.5C6.83105 0.5 7.04199 0.59375 7.2998 0.828125C7.58105 1.08594 7.83887 1.48438 8.09668 2.04688C8.35449 2.65625 8.58887 3.40625 8.72949 4.25ZM1.08887 4.25C1.79199 2.51562 3.29199 1.20312 5.12012 0.710938C4.53418 1.50781 4.06543 2.77344 3.83105 4.25H1.08887ZM3.7373 5C3.69043 5.49219 3.64355 5.98438 3.64355 6.5C3.64355 7.01562 3.69043 7.53125 3.7373 8H0.854492C0.713867 7.53125 0.666992 7.03906 0.666992 6.5C0.666992 5.98438 0.713867 5.49219 0.854492 5H3.7373ZM5.21387 10.9766C4.95605 10.3672 4.72168 9.61719 4.58105 8.75H8.72949C8.58887 9.61719 8.35449 10.3672 8.09668 10.9766C7.83887 11.5391 7.58105 11.9375 7.2998 12.1953C7.04199 12.4297 6.83105 12.5 6.64355 12.5C6.47949 12.5 6.26855 12.4297 6.01074 12.1953C5.72949 11.9375 5.47168 11.5391 5.21387 10.9766ZM5.12012 12.3125C3.29199 11.8203 1.79199 10.5078 1.08887 8.75H3.83105C4.06543 10.25 4.53418 11.5156 5.12012 12.3125ZM8.19043 12.3125C8.77637 11.5156 9.24512 10.25 9.47949 8.75H12.2217C11.5186 10.5078 10.0186 11.8203 8.19043 12.3125Z" fill="#2E3235"/>
</svg>
