<svg viewBox="0 0 12 13" fill="none" xmlns="http://www.w3.org/2000/svg">
<path d="M0 10.25C0 10.0625 0.164062 9.875 0.375 9.875H1.89844C2.08594 9.03125 2.83594 8.375 3.75 8.375C4.64062 8.375 5.39062 9.03125 5.57812 9.875H11.625C11.8125 9.875 12 10.0625 12 10.25C12 10.4609 11.8125 10.625 11.625 10.625H5.57812C5.39062 11.4922 4.64062 12.125 3.75 12.125C2.83594 12.125 2.08594 11.4922 1.89844 10.625H0.375C0.164062 10.625 0 10.4609 0 10.25ZM4.875 10.25C4.875 9.64062 4.35938 9.125 3.75 9.125C3.11719 9.125 2.625 9.64062 2.625 10.25C2.625 10.8828 3.11719 11.375 3.75 11.375C4.35938 11.375 4.875 10.8828 4.875 10.25ZM8.25 4.625C9.14062 4.625 9.89062 5.28125 10.0781 6.125H11.625C11.8125 6.125 12 6.3125 12 6.5C12 6.71094 11.8125 6.875 11.625 6.875H10.0781C9.89062 7.74219 9.14062 8.375 8.25 8.375C7.33594 8.375 6.58594 7.74219 6.39844 6.875H0.375C0.164062 6.875 0 6.71094 0 6.5C0 6.3125 0.164062 6.125 0.375 6.125H6.39844C6.58594 5.28125 7.33594 4.625 8.25 4.625ZM9.375 6.5C9.375 5.89062 8.85938 5.375 8.25 5.375C7.61719 5.375 7.125 5.89062 7.125 6.5C7.125 7.13281 7.61719 7.625 8.25 7.625C8.85938 7.625 9.375 7.13281 9.375 6.5ZM11.625 2.375C11.8125 2.375 12 2.5625 12 2.75C12 2.96094 11.8125 3.125 11.625 3.125H6.32812C6.14062 3.99219 5.39062 4.625 4.5 4.625C3.58594 4.625 2.83594 3.99219 2.64844 3.125H0.375C0.164062 3.125 0 2.96094 0 2.75C0 2.5625 0.164062 2.375 0.375 2.375H2.64844C2.83594 1.53125 3.58594 0.875 4.5 0.875C5.39062 0.875 6.14062 1.53125 6.32812 2.375H11.625ZM3.375 2.75C3.375 3.38281 3.86719 3.875 4.5 3.875C5.10938 3.875 5.625 3.38281 5.625 2.75C5.625 2.14062 5.10938 1.625 4.5 1.625C3.86719 1.625 3.375 2.14062 3.375 2.75Z" fill="#2E3235"/>
</svg>
