<svg width="8" height="12" viewBox="0 0 4 6" fill="none" xmlns="http://www.w3.org/2000/svg">
<path fill-rule="evenodd" clip-rule="evenodd" d="M3.4588 3C3.4588 2.95992 3.43876 2.91483 3.4087 2.88477L1.07403 0.5501C1.04397 0.52004 0.998881 0.5 0.9588 0.5C0.91872 0.5 0.87363 0.52004 0.84357 0.5501L0.593069 0.800601C0.563009 0.830661 0.542969 0.875751 0.542969 0.915832C0.542969 0.955912 0.563009 1.001 0.593069 1.03106L2.56201 3L0.593069 4.96894C0.563009 4.999 0.542969 5.04409 0.542969 5.08417C0.542969 5.12926 0.563009 5.16934 0.593069 5.1994L0.84357 5.4499C0.87363 5.47996 0.91872 5.5 0.9588 5.5C0.998881 5.5 1.04397 5.47996 1.07403 5.4499L3.4087 3.11523C3.43876 3.08517 3.4588 3.04008 3.4588 3Z" fill="#5B646B"/>
</svg>
