<svg width="20" height="20" viewBox="0 0 20 20" fill="none" xmlns="http://www.w3.org/2000/svg">
<path d="M10.75 14.1094C10.8672 15.0469 11.6641 15.75 12.6016 15.75H15.8828C15.3672 15.75 14.9922 15.4922 14.7578 15.1875C14.5469 14.8594 14.4297 14.4609 14.4766 14.0859C14.4766 14.0156 14.4766 13.9453 14.4766 13.875C14.4766 12.9375 13.7734 12.1406 12.8359 12.0234L13.4688 11.4141C14.5 11.7656 15.2266 12.7266 15.2266 13.875C15.2266 13.9688 15.2266 14.0625 15.2266 14.1562C15.1797 14.5781 15.4609 15 15.8828 15H15.9766C16.3984 15 16.7266 15.3516 16.7266 15.75C16.7266 16.1719 16.3984 16.5 15.9766 16.5H12.6016C11.4531 16.5 10.4922 15.7734 10.1406 14.7422L10.75 14.1094ZM3.67188 7.07812C3.08594 6.49219 3.08594 5.53125 3.67188 4.94531C4.25781 4.35938 5.21875 4.35938 5.80469 4.94531L8.5 7.64062L7.96094 8.17969L5.26562 5.48438C4.98438 5.17969 4.49219 5.17969 4.21094 5.48438C3.90625 5.76562 3.90625 6.25781 4.21094 6.53906L6.90625 9.23438L6.36719 9.75L3.67188 7.07812ZM12.7422 4.89844C13.2578 4.40625 14.0781 4.40625 14.5938 4.89844L15.6016 5.90625C16.0938 6.42188 16.0938 7.24219 15.6016 7.75781L8.26562 15.0938C7.98438 15.3516 7.65625 15.5625 7.30469 15.6562L4.46875 16.5C4.32812 16.5234 4.1875 16.5 4.09375 16.4062C4 16.3125 3.95312 16.1719 4 16.0312L4.84375 13.1953C4.9375 12.8438 5.14844 12.5156 5.40625 12.2344L12.7422 4.89844ZM14.0547 5.4375C13.8438 5.22656 13.4922 5.22656 13.2578 5.4375L11.9922 6.72656L13.7734 8.50781L15.0625 7.24219C15.2734 7.00781 15.2734 6.65625 15.0625 6.44531L14.0547 5.4375ZM5.54688 13.4062L4.91406 15.5859L7.09375 14.9531C7.32812 14.8828 7.5625 14.7422 7.72656 14.5547L13.2344 9.04688L11.4531 7.24219L5.94531 12.7734C5.75781 12.9375 5.61719 13.1719 5.54688 13.4062Z" fill="#2E3235"/>
</svg>
