<svg width="24" height="24" viewBox="0 0 24 24" fill="none" xmlns="http://www.w3.org/2000/svg">
<rect width="24" height="24" rx="4"/>
<path d="M10.125 7.25C10.7344 7.25 11.25 7.76562 11.25 8.375V10.625C11.25 11.2578 10.7344 11.75 10.125 11.75H7.875C7.24219 11.75 6.75 11.2578 6.75 10.625V8.375C6.75 7.76562 7.24219 7.25 7.875 7.25H10.125ZM10.125 13.25C10.7344 13.25 11.25 13.7656 11.25 14.375V16.625C11.25 17.2578 10.7344 17.75 10.125 17.75H7.875C7.24219 17.75 6.75 17.2578 6.75 16.625V14.375C6.75 13.7656 7.24219 13.25 7.875 13.25H10.125ZM12.75 8.375C12.75 7.76562 13.2422 7.25 13.875 7.25H16.125C16.7344 7.25 17.25 7.76562 17.25 8.375V10.625C17.25 11.2578 16.7344 11.75 16.125 11.75H13.875C13.2422 11.75 12.75 11.2578 12.75 10.625V8.375ZM15 12.875C15.3047 12.875 15.5625 13.1328 15.5625 13.4375V14.9375H17.0625C17.3672 14.9375 17.625 15.1953 17.625 15.5C17.625 15.8281 17.3672 16.0625 17.0625 16.0625H15.5625V17.5625C15.5625 17.8906 15.3047 18.125 15 18.125C14.6719 18.125 14.4375 17.8906 14.4375 17.5625V16.0625H12.9375C12.6094 16.0625 12.375 15.8281 12.375 15.5C12.375 15.1953 12.6094 14.9375 12.9375 14.9375H14.4375V13.4375C14.4375 13.1328 14.6719 12.875 15 12.875Z" fill="currentColor"/>
</svg>
