<svg width="12" height="12" viewBox="0 0 12 12" fill="none" xmlns="http://www.w3.org/2000/svg">
<path d="M0.75 1.375C0.75 0.765625 1.24219 0.25 1.875 0.25H4.125C4.73438 0.25 5.25 0.765625 5.25 1.375V5.125C5.25 5.75781 4.73438 6.25 4.125 6.25H1.875C1.24219 6.25 0.75 5.75781 0.75 5.125V1.375ZM1.5 1.375V5.125C1.5 5.33594 1.66406 5.5 1.875 5.5H4.125C4.3125 5.5 4.5 5.33594 4.5 5.125V1.375C4.5 1.1875 4.3125 1 4.125 1H1.875C1.66406 1 1.5 1.1875 1.5 1.375ZM6.75 5.875C6.75 5.26562 7.24219 4.75 7.875 4.75H10.125C10.7344 4.75 11.25 5.26562 11.25 5.875V9.625C11.25 10.2578 10.7344 10.75 10.125 10.75H7.875C7.24219 10.75 6.75 10.2578 6.75 9.625V5.875ZM7.5 5.875V9.625C7.5 9.83594 7.66406 10 7.875 10H10.125C10.3125 10 10.5 9.83594 10.5 9.625V5.875C10.5 5.6875 10.3125 5.5 10.125 5.5H7.875C7.66406 5.5 7.5 5.6875 7.5 5.875ZM4.125 7C4.73438 7 5.25 7.51562 5.25 8.125V9.625C5.25 10.2578 4.73438 10.75 4.125 10.75H1.875C1.24219 10.75 0.75 10.2578 0.75 9.625V8.125C0.75 7.51562 1.24219 7 1.875 7H4.125ZM4.125 7.75H1.875C1.66406 7.75 1.5 7.9375 1.5 8.125V9.625C1.5 9.83594 1.66406 10 1.875 10H4.125C4.3125 10 4.5 9.83594 4.5 9.625V8.125C4.5 7.9375 4.3125 7.75 4.125 7.75ZM6.75 1.375C6.75 0.765625 7.24219 0.25 7.875 0.25H10.125C10.7344 0.25 11.25 0.765625 11.25 1.375V2.875C11.25 3.50781 10.7344 4 10.125 4H7.875C7.24219 4 6.75 3.50781 6.75 2.875V1.375ZM7.5 1.375V2.875C7.5 3.08594 7.66406 3.25 7.875 3.25H10.125C10.3125 3.25 10.5 3.08594 10.5 2.875V1.375C10.5 1.1875 10.3125 1 10.125 1H7.875C7.66406 1 7.5 1.1875 7.5 1.375Z" fill="#2E3235"/>
</svg>
