<svg width="20" height="20" viewBox="0 0 12 11" fill="none" xmlns="http://www.w3.org/2000/svg">
<path d="M2.53125 1.07031C2.83594 0.578125 3.375 0.25 3.96094 0.25H8.01562C8.60156 0.25 9.14062 0.578125 9.44531 1.07031L11.625 4.63281C11.9531 5.17188 11.9531 5.85156 11.625 6.39062L9.44531 9.95312C9.14062 10.4453 8.60156 10.75 8.01562 10.75H3.96094C3.375 10.75 2.83594 10.4453 2.53125 9.95312L0.351562 6.39062C0.0234375 5.85156 0.0234375 5.17188 0.351562 4.63281L2.53125 1.07031ZM4.10156 4.39844L5.20312 5.5L4.10156 6.60156C3.86719 6.83594 3.86719 7.1875 4.10156 7.39844C4.3125 7.63281 4.66406 7.63281 4.875 7.39844L5.97656 6.29688L7.10156 7.39844C7.3125 7.63281 7.66406 7.63281 7.875 7.39844C8.10938 7.1875 8.10938 6.83594 7.875 6.60156L6.77344 5.5L7.875 4.39844C8.10938 4.1875 8.10938 3.83594 7.875 3.60156C7.66406 3.39062 7.3125 3.39062 7.10156 3.60156L5.97656 4.72656L4.875 3.60156C4.66406 3.39062 4.3125 3.39062 4.10156 3.60156C3.86719 3.83594 3.86719 4.1875 4.10156 4.39844Z" fill="#7A33EE"/>
</svg>
