<svg width="10" height="10" viewBox="0 0 10 3" fill="none" xmlns="http://www.w3.org/2000/svg">
<path d="M8 1.5C8 1.10156 8.32812 0.75 8.75 0.75C9.14844 0.75 9.5 1.10156 9.5 1.5C9.5 1.92188 9.14844 2.25 8.75 2.25C8.32812 2.25 8 1.92188 8 1.5ZM4.25 1.5C4.25 1.10156 4.57812 0.75 5 0.75C5.39844 0.75 5.75 1.10156 5.75 1.5C5.75 1.92188 5.39844 2.25 5 2.25C4.57812 2.25 4.25 1.92188 4.25 1.5ZM2 1.5C2 1.92188 1.64844 2.25 1.25 2.25C0.828125 2.25 0.5 1.92188 0.5 1.5C0.5 1.10156 0.828125 0.75 1.25 0.75C1.64844 0.75 2 1.10156 2 1.5Z" fill="#5B646B"/>
</svg>
