<svg version="1.0" xmlns="http://www.w3.org/2000/svg"
 width="60" height="60" viewBox="0 0 1200.000000 1200.000000"
 preserveAspectRatio="xMidYMid meet" fill="#000000">
<g transform="translate(0.000000,1200.000000) scale(0.100000,-0.100000)"
fill="#000000" stroke="none">
<path d="M2802 8150 c-51 -12 -110 -56 -132 -100 -20 -39 -20 -53 -20 -1969
l0 -1930 -137 -3 -138 -3 0 -75 0 -75 2020 -5 2019 -5 6 -30 c10 -47 38 -82
84 -105 41 -20 57 -20 697 -20 623 0 656 1 696 20 44 19 78 62 88 112 l7 28
741 0 c696 0 744 2 782 19 51 23 101 80 115 130 7 27 9 565 8 1717 l-3 1679
-23 42 c-12 24 -41 55 -64 70 l-42 28 -523 3 -523 3 0 137 c-1 204 -21 266
-105 314 l-40 23 -2740 2 c-1507 0 -2755 -2 -2773 -7z m5486 -172 c8 -8 12
-57 12 -155 l0 -143 -515 0 c-492 0 -518 -1 -554 -20 -48 -24 -87 -70 -101
-118 -6 -23 -10 -248 -10 -614 l0 -578 -256 0 c-161 0 -272 -4 -302 -12 -66
-17 -126 -79 -141 -147 -8 -36 -11 -354 -11 -1046 l0 -995 -1805 0 -1805 0 0
1901 c0 1291 3 1907 10 1920 11 19 52 19 2738 19 2109 0 2731 -3 2740 -12z
m1180 -470 c16 -16 18 -3309 2 -3339 -10 -19 -29 -19 -745 -19 l-735 0 0 1008
c0 679 -4 1019 -11 1045 -6 21 -26 56 -46 78 -57 63 -93 69 -395 69 l-258 0 0
569 c0 313 3 576 6 585 6 14 111 16 1088 16 828 0 1085 -3 1094 -12z m-1654
-1334 c14 -14 16 -126 16 -1080 0 -715 -3 -1072 -10 -1085 -10 -18 -28 -19
-620 -19 -592 0 -610 1 -620 19 -7 13 -10 370 -10 1085 0 954 2 1066 16 1080
14 14 83 16 614 16 531 0 600 -2 614 -16z"/>
</g>
</svg>
