<svg width="32" height="32" viewBox="0 0 32 32" fill="none" xmlns="http://www.w3.org/2000/svg">
<g clip-path="url(#clip0_570_8202)">
<path d="M16 0C7.16356 0 0 7.16356 0 16C0 24.8364 7.16356 32 16 32C24.8364 32 32 24.8364 32 16C32 7.16356 24.8364 0 16 0ZM16 30.72C7.87022 30.72 1.28 24.1298 1.28 16C1.28 7.87022 7.87022 1.28 16 1.28C24.1298 1.28 30.72 7.87022 30.72 16C30.72 24.1298 24.1298 30.72 16 30.72Z" fill="black"/>
<path d="M16.5605 17.76H19.4405V23.52H20.7205V17.76H23.6005V16.48H16.5605V17.76Z" fill="black"/>
<path d="M14.8551 16.3198L12.0804 19.0949L9.30572 16.3198L8.40039 17.2252L11.1755 19.9998L8.40039 22.7745L9.30572 23.6798L12.0804 20.9047L14.8551 23.6798L15.7604 22.7745L12.9853 19.9998L15.7604 17.2252L14.8551 16.3198Z" fill="black"/>
<path d="M20.0004 15.5199C21.9884 15.5199 23.6004 13.9079 23.6004 11.9199H22.3204C22.3204 13.2012 21.2817 14.2399 20.0004 14.2399C19.6346 14.2399 19.2888 14.155 18.9813 14.0043L22.0848 10.9008L23.0217 9.96387C22.3799 8.97498 21.2671 8.32031 20.0004 8.32031C18.0119 8.32031 16.4004 9.93231 16.4004 11.9203C16.4004 13.9083 18.0119 15.5199 20.0004 15.5199ZM20.0004 9.59987C20.4502 9.59987 20.8697 9.72831 21.2253 9.95009L18.0306 13.1448C17.8088 12.7892 17.6808 12.3696 17.6808 11.9199C17.6804 10.6385 18.7191 9.59987 20.0004 9.59987Z" fill="black"/>
<path d="M12.0804 11.5367L9.38084 8.31982L8.40039 9.14249L11.4404 12.7656V15.5198H12.7204V12.7656L15.7604 9.14249L14.7799 8.31982L12.0804 11.5367Z" fill="black"/>
</g>
<defs>
<clipPath id="clip0_570_8202">
<rect width="32" height="32" rx="16" fill="white"/>
</clipPath>
</defs>
</svg>
